# File created by Blade
# Date/Time:  Thu Sep 25 15:31:15 2014
# Frame Rate: 120.000 fps
#------------------------------------------------------
:FULLY-SPECIFIED
:DEGREES
934
root -7.338738 35.826251 -0.914391 210.887876 -61.607814 -41.398399
Spine -21.646040 15.460338 -9.989840
Head -82.182969 7.422821 0.568068
LeftShoulder -14.147188 -5.673286 34.297151
LeftArm 86.269074 -53.000673 -55.566704
LeftForeArm 8.090047 0.000000 23.370074
LeftHand -44.793206 -0.000000 86.836459
LeftHandThumb1 -26.253704 0.000000 33.147579
RightShoulder -9.528248 26.650198 -36.980370
RightArm 80.675415 40.256986 43.202849
RightForeArm -7.096622 0.000000 21.715873
RightHand -9.467356 -0.000000 -71.571761
RightHandThumb1 -24.326973 -0.000000 -32.862282
LeftUpLeg -81.482583 26.515598 21.205569
LeftLeg 8.238748 -0.000000 -0.000000
LeftFoot 10.872177 34.097140 -14.132137
LeftToeBase -0.918187 -0.000000 0.000000
RightUpLeg 16.499518 -7.355944 -24.078734
RightLeg 15.735054 -0.000000 -0.000000
RightFoot 41.178556 2.216645 -7.270010
RightToeBase 17.155678 -0.000000 -0.000000
935
root -7.579145 35.876439 -0.874688 211.170132 -61.418047 -40.445491
Spine -22.511017 15.500824 -10.020586
Head -82.478695 7.655173 0.666816
LeftShoulder -13.991958 -3.936628 33.070456
LeftArm 88.777895 -54.640491 -56.140737
LeftForeArm 7.359693 -0.000000 22.835443
LeftHand -44.555807 -0.000000 86.819353
LeftHandThumb1 -26.253704 0.000000 33.147579
RightShoulder -9.620140 26.973818 -36.855580
RightArm 80.805443 40.135149 43.363762
RightForeArm -7.252663 -0.000000 21.846837
RightHand -9.493332 0.000000 -71.603086
RightHandThumb1 -24.326973 -0.000000 -32.862282
LeftUpLeg -80.170092 26.238631 21.287999
LeftLeg 8.621195 -0.000000 -0.000000
LeftFoot 12.377679 34.742004 -14.886535
LeftToeBase -2.828347 -0.000000 0.000000
RightUpLeg 16.666103 -7.060845 -24.487041
RightLeg 15.647857 -0.000000 -0.000000
RightFoot 41.133510 1.923119 -7.367203
RightToeBase 16.477745 -0.000000 -0.000000
936
root -7.815195 35.921857 -0.834796 211.295425 -61.285415 -39.333532
Spine -23.360195 15.584539 -9.894654
Head -82.749840 7.808461 0.666600
LeftShoulder -14.001439 -2.755357 32.175597
LeftArm 90.775331 -55.691200 -56.927291
LeftForeArm 7.025687 -0.000000 22.598848
LeftHand -44.223054 -0.000000 86.784717
LeftHandThumb1 -26.253704 0.000000 33.147579
RightShoulder -9.614927 27.271690 -36.713139
RightArm 81.062757 40.095356 43.706329
RightForeArm -7.569816 -0.000000 22.016073
RightHand -9.444413 -0.000000 -71.605715
RightHandThumb1 -24.326973 -0.000000 -32.862282
LeftUpLeg -78.965063 26.002378 21.289337
LeftLeg 8.885583 -0.000000 -0.000000
LeftFoot 14.043932 35.323559 -15.460727
LeftToeBase 1.222369 -0.000000 -0.000000
RightUpLeg 16.796933 -6.705323 -24.755637
RightLeg 15.635577 -0.000000 -0.000000
RightFoot 41.215577 2.045927 -7.258529
RightToeBase 15.823617 -0.000000 -0.000000
937
root -8.038383 35.964668 -0.803845 211.331516 -61.193554 -38.338233
Spine -23.940120 15.638177 -9.774236
Head -83.088200 8.026888 0.635446
LeftShoulder -14.010979 -1.556775 31.283026
LeftArm 93.244868 -56.806304 -58.273491
LeftForeArm 6.895160 -0.000000 22.456391
LeftHand -44.205934 -0.000000 87.056495
LeftHandThumb1 -26.253704 0.000000 33.147579
RightShoulder -9.546180 27.601249 -36.419998
RightArm 81.507402 40.129752 44.114185
RightForeArm -8.044826 -0.000000 22.089647
RightHand -9.430884 -0.000000 -71.696078
RightHandThumb1 -24.326973 -0.000000 -32.862282
LeftUpLeg -77.607200 25.635442 21.401597
LeftLeg 9.007846 -0.000000 -0.000000
LeftFoot 15.870104 35.516075 -15.267417
LeftToeBase 2.158768 -0.000000 -0.000000
RightUpLeg 17.137949 -6.373100 -25.072080
RightLeg 15.632631 -0.000000 -0.000000
RightFoot 41.396641 2.528960 -6.912335
RightToeBase 15.767453 -0.000000 -0.000000
938
root -8.258870 36.003579 -0.775803 211.181021 -61.207017 -37.108605
Spine -24.556466 15.808204 -9.456239
Head -83.353775 8.064871 0.408103
LeftShoulder -13.947477 -0.471809 30.307570
LeftArm 95.361332 -57.855564 -59.190513
LeftForeArm 6.490377 -0.000000 22.237554
LeftHand -43.947170 0.000000 87.144718
LeftHandThumb1 -26.253704 0.000000 33.147579
RightShoulder -9.497790 27.767993 -36.198056
RightArm 82.148136 40.257023 44.644043
RightForeArm -8.587761 0.000000 22.094516
RightHand -9.419885 -0.000000 -71.804953
RightHandThumb1 -24.326973 -0.000000 -32.862282
LeftUpLeg -76.435391 25.315707 21.466968
LeftLeg 9.147583 -0.000000 -0.000000
LeftFoot 17.325031 35.453546 -15.156204
LeftToeBase -2.253852 -0.000000 0.000000
RightUpLeg 17.429671 -6.111177 -25.212911
RightLeg 15.635929 -0.000000 -0.000000
RightFoot 41.708499 3.107005 -6.404538
RightToeBase 15.984955 -0.000000 -0.000000
939
root -8.468390 36.039430 -0.752743 211.033245 -61.272157 -35.941866
Spine -25.119115 16.026518 -9.128507
Head -83.646069 7.922394 0.070667
LeftShoulder -13.794982 0.337593 29.454759
LeftArm 96.894081 -58.811869 -59.692008
LeftForeArm 6.049049 0.000000 21.998459
LeftHand -43.795185 -0.000000 87.286903
LeftHandThumb1 -26.253704 0.000000 33.147579
RightShoulder -9.451181 27.679194 -35.991903
RightArm 83.026266 40.561682 45.290098
RightForeArm -9.150411 -0.000000 22.021830
RightHand -9.406370 -0.000000 -72.065885
RightHandThumb1 -24.326973 -0.000000 -32.862282
LeftUpLeg -75.258874 24.983858 21.559848
LeftLeg 9.050243 -0.000000 -0.000000
LeftFoot 18.819444 35.035339 -15.010329
LeftToeBase -0.049117 -0.000000 0.000000
RightUpLeg 17.812523 -5.980035 -25.382198
RightLeg 15.594130 -0.000000 -0.000000
RightFoot 42.087639 3.867865 -5.957413
RightToeBase 16.380313 -0.000000 -0.000000
